PathFileType	4	(X/Y/Z)	Gait_norma_markers.trc
DataRate	CameraRate	NumFrames	NumMarkers	Units	OrigDataRate	OrigDataStartFrame	OrigNumFrames
100	100	8	38	m	100	23	90
Frame#	Time	RASI			RPSI			LPSI			LASI			RTROCH			RTHI			RTHI2			RTHI3			RTHI4			RKNE			RKNEM			RTIB			RTIB2			RTIB3			RTIB4			RANK			RANKM			RHEE			RTOE			RTOEL			RTOEM			LTROCH			LTHI			LTHI2			LTHI3			LTHI4			LKNE			LKNEM			LTIB			LTIB2			LTIB3			LTIB4			LANK			LANKM			LHEE			LTOE			LTOEL			LTOEM
		X1	Y1	Z1	X2	Y2	Z2	X3	Y3	Z3	X4	Y4	Z4	X5	Y5	Z5	X6	Y6	Z6	X7	Y7	Z7	X8	Y8	Z8	X9	Y9	Z9	X10	Y10	Z10	X11	Y11	Z11	X12	Y12	Z12	X13	Y13	Z13	X14	Y14	Z14	X15	Y15	Z15	X16	Y16	Z16	X17	Y17	Z17	X18	Y18	Z18	X19	Y19	Z19	X20	Y20	Z20	X21	Y21	Z21	X22	Y22	Z22	X23	Y23	Z23	X24	Y24	Z24	X25	Y25	Z25	X26	Y26	Z26	X27	Y27	Z27	X28	Y28	Z28	X29	Y29	Z29	X30	Y30	Z30	X31	Y31	Z31	X32	Y32	Z32	X33	Y33	Z33	X34	Y34	Z34	X35	Y35	Z35	X36	Y36	Z36	X37	Y37	Z37	X38	Y38	Z38

23	0.220000	-0.349462	0.937062	-0.651747	-0.272263	0.976177	-0.832544	-0.176187	0.965164	-0.823089	-0.124024	0.951186	-0.631769	-0.401436	0.865841	-0.737524	-0.406380	0.757788	-0.770583	-0.401594	0.751845	-0.706412	-0.392376	0.669209	-0.708099	-0.397710	0.669867	-0.770931	-0.373807	0.516241	-0.792321	-0.258689	0.518572	-0.773641	-0.388738	0.419052	-0.891436	-0.365221	0.379662	-0.846964	-0.361423	0.314051	-0.904015	-0.384649	0.357782	-0.945795	-0.326893	0.197088	-1.092488	-0.260971	0.175249	-1.051916	-0.274349	0.181633	-1.163064	-0.342623	0.049954	-0.992311	-0.388882	0.061274	-1.054682	-0.286060	0.034794	-1.004779	-0.062448	0.879030	-0.697146	-0.056651	0.685726	-0.605954	-0.076137	0.705492	-0.549513	-0.089388	0.626371	-0.527996	-0.070240	0.601378	-0.584521	-0.098270	0.531293	-0.532446	-0.202183	0.546304	-0.540575	-0.078959	0.306195	-0.524398	-0.103954	0.321607	-0.466672	-0.113176	0.234634	-0.459301	-0.089354	0.223962	-0.516093	-0.116188	0.093385	-0.494941	-0.188833	0.122771	-0.463544	-0.168987	0.054290	-0.541355	-0.119168	0.074164	-0.313040	-0.072485	0.049790	-0.362463	-0.172872	0.063434	-0.325157
24	0.230000	-0.347056	0.939137	-0.639088	-0.272043	0.978812	-0.820154	-0.175241	0.967259	-0.810493	-0.121953	0.953705	-0.619268	-0.399084	0.866571	-0.723323	-0.404274	0.757621	-0.754215	-0.399540	0.752510	-0.689507	-0.392041	0.669968	-0.689533	-0.396813	0.669317	-0.752247	-0.375870	0.515419	-0.769268	-0.261097	0.517182	-0.748171	-0.389940	0.420417	-0.868773	-0.367590	0.379872	-0.825786	-0.362761	0.316203	-0.885230	-0.385154	0.360891	-0.925895	-0.325445	0.206586	-1.077023	-0.260697	0.182180	-1.035800	-0.271059	0.197196	-1.146630	-0.342536	0.051427	-0.988285	-0.387119	0.067478	-1.050736	-0.285238	0.038032	-1.000555	-0.060858	0.881347	-0.685147	-0.054972	0.687895	-0.593399	-0.075356	0.707890	-0.537351	-0.089127	0.628889	-0.516014	-0.069758	0.603714	-0.572304	-0.095387	0.531382	-0.524785	-0.199927	0.545500	-0.530011	-0.077797	0.306288	-0.519137	-0.102583	0.320832	-0.461041	-0.112007	0.233518	-0.455429	-0.088528	0.223717	-0.512485	-0.115955	0.093355	-0.493798	-0.188606	0.122950	-0.462657	-0.168663	0.054630	-0.540854	-0.119506	0.071346	-0.311858	-0.072668	0.047725	-0.361392	-0.173172	0.061347	-0.324533
25	0.240000	-0.344878	0.941014	-0.626349	-0.270358	0.980119	-0.806654	-0.174126	0.969306	-0.797811	-0.119933	0.956545	-0.606945	-0.396720	0.867096	-0.709272	-0.402185	0.756904	-0.737224	-0.398064	0.753613	-0.672597	-0.392264	0.670805	-0.670533	-0.396462	0.668688	-0.733074	-0.377758	0.514635	-0.745789	-0.260588	0.515424	-0.720759	-0.391330	0.421760	-0.845591	-0.369555	0.379952	-0.803725	-0.363968	0.318280	-0.865414	-0.385611	0.364323	-0.904814	-0.323930	0.216222	-1.059766	-0.260215	0.189700	-1.018036	-0.267151	0.212747	-1.127248	-0.343037	0.053668	-0.983043	-0.385244	0.075220	-1.045623	-0.284839	0.042556	-0.995052	-0.059006	0.883415	-0.673484	-0.053330	0.690574	-0.582466	-0.074928	0.709578	-0.526608	-0.087575	0.629915	-0.506384	-0.066700	0.605900	-0.562578	-0.092671	0.531297	-0.517790	-0.198353	0.545455	-0.522545	-0.077066	0.306402	-0.514196	-0.101418	0.320116	-0.455956	-0.111636	0.232651	-0.451725	-0.088299	0.224017	-0.508869	-0.115846	0.093141	-0.492469	-0.188390	0.122120	-0.460855	-0.168449	0.054797	-0.540444	-0.120129	0.068708	-0.310994	-0.072994	0.046345	-0.360518	-0.173701	0.059343	-0.323741
26	0.250000	-0.342974	0.943175	-0.613569	-0.268813	0.981536	-0.793476	-0.172714	0.971359	-0.785246	-0.117874	0.959083	-0.594886	-0.394559	0.867888	-0.695462	-0.400581	0.756480	-0.720308	-0.396982	0.754750	-0.655531	-0.392653	0.671950	-0.651186	-0.396434	0.668376	-0.713751	-0.379176	0.513973	-0.722159	-0.263816	0.512304	-0.693519	-0.392015	0.423315	-0.821861	-0.372156	0.380867	-0.780978	-0.364784	0.320505	-0.844431	-0.385559	0.368197	-0.882959	-0.322378	0.225944	-1.040749	-0.259645	0.197294	-0.998615	-0.263494	0.228497	-1.105641	-0.343626	0.056914	-0.976446	-0.383542	0.084542	-1.038442	-0.284801	0.048075	-0.988130	-0.057402	0.885660	-0.662200	-0.051927	0.692829	-0.572457	-0.074155	0.709863	-0.516265	-0.085245	0.629663	-0.498304	-0.063631	0.607508	-0.554930	-0.091409	0.531488	-0.510211	-0.197791	0.546768	-0.517145	-0.076437	0.306515	-0.509395	-0.101115	0.319503	-0.451081	-0.111578	0.231995	-0.448261	-0.087860	0.224253	-0.505310	-0.115838	0.093207	-0.491265	-0.188563	0.121619	-0.459633	-0.168724	0.054387	-0.540175	-0.120657	0.067194	-0.310027	-0.073188	0.045984	-0.360082	-0.174023	0.057540	-0.323162
27	0.260000	-0.340842	0.944790	-0.601628	-0.267917	0.983828	-0.781720	-0.171440	0.973538	-0.773076	-0.116108	0.961434	-0.582878	-0.392736	0.868682	-0.681927	-0.399456	0.756136	-0.703470	-0.396280	0.756071	-0.638558	-0.393113	0.673720	-0.632050	-0.396446	0.668383	-0.694489	-0.380992	0.514074	-0.698685	-0.263954	0.510460	-0.667269	-0.392146	0.425465	-0.798203	-0.373831	0.381726	-0.757750	-0.365507	0.322924	-0.822835	-0.385277	0.372165	-0.860419	-0.320456	0.235328	-1.020334	-0.259488	0.204182	-0.978252	-0.260023	0.243722	-1.082083	-0.344514	0.061995	-0.967504	-0.381798	0.095134	-1.028479	-0.284985	0.054466	-0.979570	-0.056200	0.888165	-0.650977	-0.050674	0.694250	-0.562945	-0.072507	0.709240	-0.506050	-0.083241	0.628411	-0.490450	-0.061954	0.608201	-0.547847	-0.090902	0.531812	-0.502282	-0.197791	0.547471	-0.511630	-0.076101	0.306620	-0.504791	-0.101234	0.318804	-0.446552	-0.111865	0.231434	-0.444999	-0.087849	0.224311	-0.502113	-0.116138	0.093274	-0.490360	-0.189185	0.120709	-0.458935	-0.168925	0.054180	-0.539875	-0.120836	0.065698	-0.309272	-0.073292	0.045572	-0.359754	-0.174362	0.056761	-0.322586
28	0.270000	-0.338823	0.946607	-0.589492	-0.266427	0.985293	-0.769661	-0.170063	0.975685	-0.761171	-0.115781	0.963560	-0.571546	-0.391110	0.869555	-0.668536	-0.398695	0.756215	-0.687075	-0.396073	0.757639	-0.621935	-0.393716	0.675579	-0.613309	-0.396337	0.668572	-0.675437	-0.382266	0.514334	-0.675225	-0.267162	0.510490	-0.639483	-0.392682	0.427796	-0.773625	-0.375232	0.382976	-0.734084	-0.366083	0.325255	-0.801051	-0.385322	0.375958	-0.837369	-0.317847	0.244430	-0.999769	-0.258099	0.211423	-0.957410	-0.255731	0.256564	-1.057863	-0.345530	0.070159	-0.954270	-0.380726	0.106282	-1.015475	-0.287223	0.060421	-0.968148	-0.054338	0.890768	-0.639184	-0.049752	0.694394	-0.553891	-0.070571	0.708602	-0.496393	-0.081926	0.627535	-0.482623	-0.061608	0.608320	-0.540708	-0.090832	0.532190	-0.494464	-0.197496	0.547808	-0.505835	-0.075940	0.306772	-0.500666	-0.101461	0.318060	-0.442513	-0.112243	0.230765	-0.442339	-0.087786	0.224365	-0.499149	-0.116354	0.093330	-0.489660	-0.189597	0.120294	-0.458204	-0.168672	0.054784	-0.539718	-0.120996	0.064794	-0.309085	-0.073482	0.045309	-0.359502	-0.174857	0.056379	-0.322307
29	0.280000	-0.337165	0.948483	-0.577661	-0.265096	0.986648	-0.757934	-0.168781	0.977703	-0.749599	-0.114207	0.965498	-0.560155	-0.388749	0.869830	-0.654068	-0.397934	0.756517	-0.670930	-0.395904	0.759584	-0.605770	-0.394186	0.677769	-0.595000	-0.396063	0.669379	-0.657180	-0.383480	0.515165	-0.651802	-0.266981	0.511215	-0.614348	-0.393231	0.430913	-0.749225	-0.376567	0.384978	-0.710152	-0.365926	0.328532	-0.778536	-0.384505	0.380581	-0.813913	-0.314565	0.253550	-0.979043	-0.256402	0.218010	-0.936067	-0.250570	0.265611	-1.035243	-0.348368	0.077335	-0.939438	-0.380606	0.117688	-1.000388	-0.289371	0.067570	-0.951970	-0.054522	0.893700	-0.629249	-0.048919	0.694426	-0.545564	-0.068785	0.708329	-0.487682	-0.080995	0.627222	-0.474563	-0.061787	0.608338	-0.533078	-0.090813	0.532270	-0.487064	-0.196541	0.550996	-0.494736	-0.075702	0.306895	-0.497090	-0.101315	0.317457	-0.438922	-0.112186	0.230042	-0.439991	-0.087812	0.224597	-0.496840	-0.116519	0.093346	-0.489055	-0.189895	0.120303	-0.457380	-0.168676	0.054916	-0.539743	-0.121633	0.063610	-0.309044	-0.073670	0.045109	-0.359309	-0.175277	0.055942	-0.322091
30	0.290000	-0.335349	0.950113	-0.565773	-0.263941	0.987935	-0.746519	-0.167742	0.979528	-0.738154	-0.112541	0.967405	-0.548823	-0.387493	0.871228	-0.641139	-0.396993	0.757282	-0.655029	-0.395740	0.761847	-0.590130	-0.394648	0.679977	-0.577041	-0.395839	0.670678	-0.639424	-0.384700	0.516582	-0.628324	-0.268173	0.513811	-0.590018	-0.393219	0.434388	-0.724984	-0.377266	0.387410	-0.686798	-0.364305	0.333576	-0.755144	-0.383788	0.385733	-0.790525	-0.310695	0.261722	-0.957673	-0.254147	0.224768	-0.914084	-0.245097	0.272736	-1.012906	-0.350667	0.087316	-0.920033	-0.380732	0.129324	-0.981251	-0.291265	0.075592	-0.932112	-0.053054	0.895988	-0.617974	-0.048164	0.695070	-0.537814	-0.067250	0.708676	-0.479689	-0.080051	0.627515	-0.466947	-0.061484	0.608863	-0.525704	-0.090096	0.532289	-0.480767	-0.195600	0.551363	-0.488160	-0.075525	0.306988	-0.494126	-0.101024	0.316885	-0.435636	-0.112205	0.229561	-0.437952	-0.087682	0.224736	-0.494890	-0.116546	0.093359	-0.488665	-0.190044	0.120381	-0.457880	-0.168614	0.054988	-0.539695	-0.122035	0.062821	-0.308995	-0.073790	0.044980	-0.359194	-0.175502	0.055704	-0.321949
